<?xml version="1.0" encoding="UTF-8"?>
<svg id="step_4" data-name="step 4" xmlns="http://www.w3.org/2000/svg" viewBox="0 0 300 200">
  <defs>
    <style>
      .cls-1 {
        fill: #40d65b;
      }

      .cls-2 {
        fill: #6f4733;
      }

      .cls-3 {
        fill: #2a4a2e;
      }

      .cls-4 {
        fill: #4b1900;
      }

      .cls-5 {
        fill: #70d36a;
      }
    </style>
  </defs>
  <path class="cls-2" d="M297.52,90.85l-7.05,5.25-3.64,2.71H119.54c-8.05,0-15.87,2.75-22.15,7.79l-42.71,34.26h-16.82l54.98-40.92c7.92-5.89,17.53-9.08,27.4-9.08,28.75,0,57.5,0,86.25-.01,5.63,0,11.25.27,16.87-.34.88-.09,1.75-.16,2.63-.28,1.28-.18,2.57-.38,3.85-.59,1.16-.2,2.32-.41,3.47-.65,1.58-.34,3.15-.72,4.71-1.22,1.57-.5,3.14-1.04,4.67-1.96.46-.27.92-.53,1.35-1.04h.13c-.01.09-.02.18-.04.26-.39,1.97-.93,3.75-1.61,5.35-.04.09-.12.17-.09.32.03.15.11.09.17.08.37-.06.73-.11,1.1-.2,1.35-.29,2.69-.61,4.02-1.03,2.49-.78,4.97-1.72,7.4-3.16.74-.43,1.47-.9,2.16-1.62h.08c0,.19-.04.35-.07.51-.36,1.73-.83,3.31-1.41,4.74-.1.25-.2.5-.31.76.1.13.18.08.25.08.7,0,1.4,0,2.11,0h39.58Z"/>
  <path class="cls-4" d="M286.83,98.81l-50.17,37.34c-4.1,3.05-9.08,4.7-14.19,4.7-31.2,0-62.39.01-93.59-.01-5.62,0-11.24.27-16.86-.34-.88-.09-1.75-.16-2.63-.28-1.28-.18-2.57-.38-3.85-.59-1.16-.2-2.32-.41-3.47-.65-1.58-.34-3.15-.72-4.71-1.22-1.57-.5-3.14-1.04-4.67-1.96-.46-.27-1.47-1.04-1.47-1.04.01.09.97,4.01,1.65,5.61.04.09.12.17.09.32-.03.15-.11.09-.17.08-.37-.06-.74-.11-1.11-.2-1.34-.29-2.68-.61-4.02-1.03-2.49-.78-4.97-1.72-7.4-3.16-.74-.43-2.25-1.62-2.25-1.62-.02,1.39.9,3.82,1.48,5.25.1.25.2.5.31.76-.1.13-.18.08-.25.08-.7,0-1.4,0-2.11,0h-22.76l43.03-34.51c6.07-4.87,13.63-7.53,21.42-7.53h167.7Z"/>
  <g>
    <g>
      <polygon class="cls-5" points="165.72 134.9 165.72 130.96 164.74 128.54 166.94 127.32 167.92 129.03 166.88 131.11 166.88 134.9 165.72 134.9"/>
      <path class="cls-5" d="M166.16,128.86c-.25-.74,1.07-1.91,2.1-2.48,2.58-1.45,6.5.19,6.5.19,0,0-2.23,2.41-4.4,2.87-1.6.34-3.92.29-4.2-.57Z"/>
      <path class="cls-5" d="M166.93,128.69c.28-.81-.9-2.15-1.83-2.83-2.34-1.71-6.11-.1-6.11-.1,0,0,1.95,2.76,3.97,3.36,1.49.45,3.66.5,3.98-.43Z"/>
    </g>
    <g>
      <polygon class="cls-5" points="185.97 112.12 185.97 108.17 184.99 105.76 187.19 104.54 188.17 106.25 187.13 108.33 187.13 112.12 185.97 112.12"/>
      <path class="cls-5" d="M186.41,106.07c-.25-.74,1.07-1.91,2.1-2.48,2.58-1.45,6.5.19,6.5.19,0,0-2.23,2.41-4.4,2.87-1.6.34-3.92.29-4.2-.57Z"/>
      <path class="cls-5" d="M187.18,105.9c.28-.81-.9-2.15-1.83-2.83-2.34-1.71-6.11-.1-6.11-.1,0,0,1.95,2.76,3.97,3.36,1.49.45,3.66.5,3.98-.43Z"/>
    </g>
    <g>
      <polygon class="cls-5" points="104.33 130.47 104.33 126.53 103.35 124.11 105.55 122.89 106.53 124.6 105.49 126.68 105.49 130.47 104.33 130.47"/>
      <path class="cls-5" d="M104.78,124.43c-.25-.74,1.07-1.91,2.1-2.48,2.58-1.45,6.5.19,6.5.19,0,0-2.23,2.41-4.4,2.87-1.6.34-3.92.29-4.2-.57Z"/>
      <path class="cls-5" d="M105.55,124.26c.28-.81-.9-2.15-1.83-2.83-2.34-1.71-6.11-.1-6.11-.1,0,0,1.95,2.76,3.97,3.36,1.49.45,3.66.5,3.98-.43Z"/>
    </g>
    <g>
      <polygon class="cls-5" points="160.02 117.18 160.02 113.24 159.05 110.82 161.25 109.6 162.22 111.31 161.18 113.39 161.18 117.18 160.02 117.18"/>
      <path class="cls-5" d="M160.47,111.14c-.25-.74,1.07-1.91,2.1-2.48,2.58-1.45,6.5.19,6.5.19,0,0-2.23,2.41-4.4,2.87-1.6.34-3.92.29-4.2-.57Z"/>
      <path class="cls-5" d="M161.24,110.97c.28-.81-.9-2.15-1.83-2.83-2.34-1.71-6.11-.1-6.11-.1,0,0,1.95,2.76,3.97,3.36,1.49.45,3.66.5,3.98-.43Z"/>
    </g>
    <g>
      <polygon class="cls-5" points="220.44 135.58 220.44 131.63 219.46 129.22 221.66 128 222.64 129.71 221.6 131.79 221.6 135.58 220.44 135.58"/>
      <path class="cls-5" d="M220.47,129.89c-.39-.68.66-2.08,1.56-2.86,2.24-1.94,6.4-1.13,6.4-1.13,0,0-1.69,2.81-3.72,3.7-1.5.65-3.78,1.08-4.23.29Z"/>
      <path class="cls-5" d="M220.97,129.53c-.02-.76-1.34-1.58-2.28-1.9-2.36-.81-4.87,1.61-4.87,1.61,0,0,2.35,1.81,4.13,1.76,1.31-.03,3.05-.59,3.03-1.47Z"/>
    </g>
    <g>
      <polygon class="cls-5" points="119.82 113.43 119.82 109.48 118.84 107.07 121.04 105.85 122.02 107.56 120.97 109.64 120.97 113.43 119.82 113.43"/>
      <path class="cls-5" d="M119.85,107.74c-.39-.68.66-2.08,1.56-2.86,2.24-1.94,6.4-1.13,6.4-1.13,0,0-1.69,2.81-3.72,3.7-1.5.65-3.78,1.08-4.23.29Z"/>
      <path class="cls-5" d="M120.35,107.38c-.02-.76-1.34-1.58-2.28-1.9-2.36-.81-4.87,1.61-4.87,1.61,0,0,2.35,1.81,4.13,1.76,1.31-.03,3.05-.59,3.03-1.47Z"/>
    </g>
    <g>
      <polygon class="cls-5" points="191.57 130.36 191.57 126.41 190.59 124 192.79 122.78 193.77 124.49 192.73 126.57 192.73 130.36 191.57 130.36"/>
      <path class="cls-5" d="M191.14,124.65c-.31-.72.92-1.99,1.9-2.64,2.46-1.65,6.49-.33,6.49-.33,0,0-2.03,2.58-4.15,3.21-1.57.46-3.88.6-4.24-.24Z"/>
      <path class="cls-5" d="M192.49,124.73c.45-.62-.11-2.07-.66-2.9-1.38-2.07-4.85-1.67-4.85-1.67,0,0,.78,2.86,2.21,3.9,1.06.77,2.78,1.38,3.3.67Z"/>
    </g>
    <g>
      <polygon class="cls-5" points="241.57 122.13 241.57 118.19 240.59 115.77 242.79 114.55 243.77 116.26 242.72 118.34 242.72 122.13 241.57 122.13"/>
      <path class="cls-5" d="M241.14,116.42c-.31-.72.92-1.99,1.9-2.64,2.46-1.65,6.49-.33,6.49-.33,0,0-2.03,2.58-4.15,3.21-1.57.46-3.88.6-4.24-.24Z"/>
      <path class="cls-5" d="M242.49,116.5c.45-.62-.11-2.07-.66-2.9-1.38-2.07-4.85-1.67-4.85-1.67,0,0,.78,2.86,2.21,3.9,1.06.77,2.78,1.38,3.3.67Z"/>
    </g>
    <g>
      <polygon class="cls-5" points="219.85 113.6 219.85 109.66 218.88 107.25 221.08 106.03 222.05 107.74 221.01 109.81 221.01 113.6 219.85 113.6"/>
      <path class="cls-5" d="M219.42,107.92c-.29-.7.85-1.92,1.76-2.55,2.29-1.59,6.06-.3,6.06-.3,0,0-1.88,2.49-3.87,3.09-1.46.44-3.62.57-3.96-.24Z"/>
      <path class="cls-5" d="M220.52,107.88c.16-.84-1.22-2-2.26-2.54-2.61-1.35-6.14.82-6.14.82,0,0,2.37,2.44,4.48,2.74,1.56.22,3.75-.05,3.93-1.03Z"/>
    </g>
    <g>
      <polygon class="cls-5" points="138.85 128.16 138.85 124.22 137.87 121.8 140.07 120.58 141.05 122.29 140.01 124.37 140.01 128.16 138.85 128.16"/>
      <path class="cls-5" d="M138.42,122.48c-.29-.7.85-1.92,1.76-2.55,2.29-1.59,6.06-.3,6.06-.3,0,0-1.88,2.49-3.87,3.09-1.46.44-3.62.57-3.96-.24Z"/>
      <path class="cls-5" d="M139.52,122.43c.16-.84-1.22-2-2.26-2.54-2.61-1.35-6.14.82-6.14.82,0,0,2.37,2.44,4.48,2.74,1.56.22,3.75-.05,3.93-1.03Z"/>
    </g>
  </g>
  <g>
    <path class="cls-3" d="M60.56,117.85l-3.91,34.63c-.36.13-.72.25-1.08.37-.54.17-1.08.3-1.62.42-.15.03-.3.06-.45.08-.02,0-.05.03-.06-.03-.02-.06.02-.09.03-.13.27-.64.49-1.36.65-2.15,0-.03,0-.07.01-.11h-.05c-.17.21-.36.31-.54.42-.62.37-1.25.59-1.89.79-.52.16-1.04.3-1.56.41l-1.52-34.69h11.99Z"/>
    <polygon class="cls-3" points="60.7 116.62 60.56 117.85 48.57 117.85 48.52 116.62 60.7 116.62"/>
    <path class="cls-3" d="M103.3,77.92l-4.14,39.93H11.45l-5.29-33.97,19.5-1.87c4.52-.22,9.04-.54,13.52-1.26,1.25-.2,2.49-.37,3.73-.6,1.82-.35,3.63-.73,5.46-1.13,1.64-.37,3.27-.75,4.9-1.18,2.22-.59,4.43-1.26,6.62-2.08,2.21-.83,4.4-1.72,6.52-3.13.63-.42,1.28-.82,1.85-1.58h.18c-.01.12-.02.25-.03.35-.42,2.85-1.06,5.43-1.91,7.75-.04.14-.15.25-.09.46.06.21.16.11.25.09.53-.11,1.04-.22,1.56-.35,1.89-.52,3.78-1.08,5.66-1.77,3.5-1.28,6.97-2.81,10.33-5.03,1.02-.68,2.04-1.39,2.96-2.47h.12c.02.25-.02.48-.06.72-.38,2.49-.94,4.78-1.66,6.87-.13.36-.26.72-.39,1.1.15.17.26.11.36.1,1.01-.04,2.01-.1,3.02-.15l14.75-.81Z"/>
    <g>
      <g>
        <path class="cls-1" d="M61.89,104.17l.74-5.36-3.86.29,1.45-10.37-5.49.42c1.43-2.14,1.74-4.45,1.74-4.45-1.11-.62-3.23-.85-3.23-.85,0,0,1.05-.29,2.5-.16-6.35-2.22-9.2,1.54-9.2,1.54.17-.3.78-1.52.78-1.52-1.84,1.36-3.42,4.41-4.29,6.33l-2.83.22-2.58,9.36h-.06s.04-9.16.04-9.16l-6.56.5,1.18,15.48,8.64-.66,4.87-14.45c.23.05.47.12.73.22,0,.06-.02.13-.02.2-1.04,7.08-1.97,10.38-2.82,12.2.37-.1.72-.21,1.19-.49,0,0-.34,1.06-.93,2.09l6.7-.51,1.88-13.58s.02-.01.03-.02c.53-.36,1-.78,1.4-1.22l-2.05,14.72,10.04-.77h0ZM52.29,89.34h0c-.39.42-.94.75-1.7.92-1.2.26-2.16-.05-2.89-.57h-.04c-.52-.36-.92-.82-1.23-1.24,0-.02-.02-.03-.03-.05-.42-.6-.63-1.11-.63-1.11,0,0,.75-1.43,2.75-2.17,1.15-.38,2.53-.41,4.62.54.14,1.05.1,2.64-.85,3.68Z"/>
        <path class="cls-1" d="M68.78,88.08l-3.44.26-2.19,15.74,4.73-.36c-.63.28-1.36.53-2.17.72-2.27.51-5.42,1.31-6.61,3.75.54-.26,1.03-.64,1.56-.71-1.37,1.21-3.05,5.12-.13,8.07.14-3.29,2.61-5.62,6.77-6.71,4.8-1.26,7.57-2.99,8.93-5.74,1.11-2.24,1.6-4.8,1.75-7.41.32-5.42-2.9-8.07-9.18-7.59ZM71.78,99.14c-.27,1.12-.71,2.08-1.45,2.92-.25.28-.6.59-1.05.9l1.36-9.72c2.03-.16,1.68,3.69,1.14,5.91Z"/>
      </g>
      <path class="cls-1" d="M49.86,86.04c-.09-.01-.17-.02-.26-.01-.58.02-1.08.45-1.18,1.04-.11.68.35,1.31,1.03,1.43.47.08.92-.12,1.19-.47.12-.16.21-.35.24-.56.11-.67-.34-1.31-1.02-1.42Z"/>
    </g>
  </g>
</svg>