<?xml version="1.0" encoding="UTF-8"?>
<svg id="step_1" data-name="step 1" xmlns="http://www.w3.org/2000/svg" viewBox="0 0 300 200">
  <defs>
    <style>
      .cls-1 {
        fill: #2a4a2e;
      }

      .cls-2 {
        fill: #509bff;
      }
    </style>
  </defs>
  <g>
    <path class="cls-1" d="M281.67,117.65l-7.05,5.25-45.18,33.63c-9.7,7.22-21.47,11.12-33.56,11.12-27.61,0-55.22,0-82.84-.01-5.62,0-11.24.27-16.86-.34-.88-.09-1.75-.16-2.63-.28-1.28-.18-2.57-.38-3.85-.59-1.16-.2-2.32-.41-3.47-.65-1.58-.34-3.15-.72-4.71-1.22-1.57-.5-3.14-1.04-4.67-1.96-.46-.27-.92-.53-1.35-1.04h-.13c.01.09.02.18.03.26.4,1.97.94,3.75,1.61,5.35.04.09.12.17.09.32-.03.15-.11.09-.17.08-.37-.06-.74-.11-1.11-.2-1.34-.29-2.68-.61-4.02-1.03-2.49-.78-4.97-1.72-7.4-3.16-.74-.43-1.47-.9-2.16-1.62h-.08c0,.19.04.35.07.51.36,1.73.83,3.31,1.41,4.74.1.25.2.5.31.76-.1.13-.18.08-.25.08-.7,0-1.4,0-2.11,0H22.01l51.7-38.48c10.04-7.47,22.23-11.51,34.75-11.51,27.39,0,54.78,0,82.17-.01,5.63,0,11.25.27,16.87-.34.88-.09,1.75-.16,2.63-.28,1.28-.18,2.57-.38,3.85-.59,1.16-.2,2.32-.41,3.47-.65,1.58-.34,3.15-.72,4.71-1.22,1.57-.5,3.14-1.04,4.67-1.96.46-.27.92-.53,1.35-1.04h.13c-.01.09-.02.18-.04.26-.39,1.97-.93,3.75-1.61,5.35-.04.09-.12.17-.09.32.03.15.11.09.17.08.37-.06.73-.11,1.1-.2,1.35-.29,2.69-.61,4.02-1.03,2.49-.78,4.97-1.72,7.4-3.16.74-.43,1.47-.9,2.16-1.62h.08c0,.19-.04.35-.07.51-.36,1.73-.83,3.31-1.41,4.74-.1.25-.2.5-.31.76.1.13.18.08.25.08.7,0,1.4,0,2.11,0h39.58Z"/>
    <path class="cls-1" d="M140.61,60.43l7.47,32.35c.07.31-.12.61-.43.68l-7.53,1.61c-.31.07-.41.47-.17.67l15.5,13.11c.18.16.47.11.58-.1l9.54-16.69c.15-.27-.05-.6-.36-.58l-8.16.54c-.33.02-.61-.24-.6-.57l.54-31.03h-16.37Z"/>
  </g>
  <path class="cls-2" d="M193.55,18.76v.04c.28.44.44.88.57,1.32.47,1.45.69,2.87.83,4.29.07.75.09,1.5.11,2.25,0,.21,0,.41-.01.61,0,.03.02.08-.05.09-.08,0-.11-.05-.15-.08-.72-.51-1.55-.97-2.49-1.38-.04-.01-.08-.02-.12-.04v.07c.2.28.27.55.36.82.3.91.41,1.8.5,2.7.09.89.97,5.01.38,13.8.02-.11-4.1,39.13-6.15,58.58-.69.32-1.18.98-1.22,1.79l-.38,8.08s-.35.57-.72.74c-1.05.45-7.79-.28-7.79-.28,0,0-2.8,9.74-1.84,16.25.6,4.06,3.79,8.67,5.32,10.04,1.53,1.36,3.25,2.17,3.25,2.17,0,0,4.73-.88,7.52-3.39,2.79-2.5,4.95-6.96,5.73-11.05.77-4.1,1.08-10.5,1.08-10.5l-6.11-1.71s-1.28-.4-1.97-1.28l1.57-8.13c.13-.68-.09-1.36-.55-1.85l10.8-79.34s-5.7-3.15-5.71-3.16c-.12-.09-1.72-1.03-2.54-1.39-.08-.03-.15-.07-.24-.08Z"/>
  <path class="cls-1" d="M204.53,133.93v4.95c-11.86,0-23.72,0-35.59,0v-4.91c2.18.01,4.35-.05,6.53-.37.6-.09,1.2-.16,1.81-.27.88-.17,1.76-.36,2.65-.56.8-.19,1.59-.38,2.38-.61,1.08-.31,2.16-.68,3.23-1.14,1.08-.47,2.15-.98,3.21-1.84.32-.26.64-.5.93-.97h.09c0,.08-.01.16-.02.24-.27,1.86-.64,3.54-1.11,5.04-.03.09-.08.16-.06.3.02.14.08.08.12.07.25-.05.51-.11.76-.18.92-.28,1.84-.58,2.76-.97,1.71-.73,3.42-1.62,5.09-2.97.51-.41,1.01-.85,1.48-1.53h.06c0,.17-.03.32-.05.48-.25,1.63-.57,3.11-.97,4.47-.07.23-.14.47-.21.72.07.12.12.08.17.08.48,0,.97,0,1.45,0h5.31Z"/>
  <rect class="cls-1" x="158.96" y="137.61" width="44.3" height="8.23"/>
</svg>