<?xml version="1.0" encoding="UTF-8"?>
<svg id="step_3" data-name="step 3" xmlns="http://www.w3.org/2000/svg" viewBox="0 0 300 200">
  <defs>
    <style>
      .cls-1 {
        fill: #e6e6e6;
      }

      .cls-2 {
        fill: #6f4733;
      }

      .cls-3 {
        fill: #4b1900;
      }

      .cls-4 {
        fill: #70d36a;
      }
    </style>
  </defs>
  <path class="cls-2" d="M277.67,90.97l-7.05,5.25-3.64,2.71H99.69c-8.05,0-15.87,2.75-22.15,7.79l-42.71,34.26h-16.82l54.98-40.92c7.92-5.89,17.53-9.08,27.4-9.08,28.75,0,57.5,0,86.25-.01,5.63,0,11.25.27,16.87-.34.88-.09,1.75-.16,2.63-.28,1.28-.18,2.57-.38,3.85-.59,1.16-.2,2.32-.41,3.47-.65,1.58-.34,3.15-.72,4.71-1.22,1.57-.5,3.14-1.04,4.67-1.96.46-.27.92-.53,1.35-1.04h.13c-.01.09-.02.18-.04.26-.39,1.97-.93,3.75-1.61,5.35-.04.09-.12.17-.09.32.03.15.11.09.17.08.37-.06.73-.11,1.1-.2,1.35-.29,2.69-.61,4.02-1.03,2.49-.78,4.97-1.72,7.4-3.16.74-.43,1.47-.9,2.16-1.62h.08c0,.19-.04.35-.07.51-.36,1.73-.83,3.31-1.41,4.74-.1.25-.2.5-.31.76.1.13.18.08.25.08.7,0,1.4,0,2.11,0h39.58Z"/>
  <path class="cls-3" d="M266.98,98.92l-50.17,37.34c-4.1,3.05-9.08,4.7-14.19,4.7-31.2,0-62.39.01-93.59-.01-5.62,0-11.24.27-16.86-.34-.88-.09-1.75-.16-2.63-.28-1.28-.18-2.57-.38-3.85-.59-1.16-.2-2.32-.41-3.47-.65-1.58-.34-3.15-.72-4.71-1.22-1.57-.5-3.14-1.04-4.67-1.96-.46-.27-1.47-1.04-1.47-1.04.01.09.97,4.01,1.65,5.61.04.09.12.17.09.32-.03.15-.11.09-.17.08-.37-.06-.74-.11-1.11-.2-1.34-.29-2.68-.61-4.02-1.03-2.49-.78-4.97-1.72-7.4-3.16-.74-.43-2.25-1.62-2.25-1.62-.02,1.39.9,3.82,1.48,5.25.1.25.2.5.31.76-.1.13-.18.08-.25.08-.7,0-1.4,0-2.11,0h-22.76l43.03-34.51c6.07-4.87,13.63-7.53,21.42-7.53h167.7Z"/>
  <g>
    <path class="cls-1" d="M181.21,108.31s6.61-9.78,7.32-10.7c1.9-2.43,8.18-7.34,10.98-9.46.78-.59.99-1.68.49-2.52-1.7-2.87-5.57-9.01-8.46-10.82-2.21-1.39-7.76-4.42-10.22-5.75-.7-.38-1.58-.22-2.09.4-2.25,2.68-8.11,9.75-9.28,12.16-1.8,3.7-11.09,12.5-11.09,12.5l22.35,14.2Z"/>
    <path class="cls-4" d="M158.87,94.11c1.13-1.78,8.32.24,13.57,3.65,4.94,3.2,9.91,8.77,8.77,10.55-1.23,1.93-9.74-.49-15.76-5.21-3.43-2.69-7.63-7.36-6.59-8.99Z"/>
  </g>
  <path class="cls-1" d="M156.54,104.83c.12-.24-.1-.5-.35-.42-1.31.4-4.04,1.44-2.94,2.85,1.11,1.42,2.66-1.18,3.3-2.42Z"/>
  <path class="cls-1" d="M168.85,103.93c-.04-.26-.38-.35-.54-.13-.82,1.1-2.41,3.55-.69,4.04s1.44-2.52,1.22-3.9Z"/>
  <path class="cls-1" d="M162.42,113.47c-.05-.21-.33-.25-.44-.06-.56.93-1.63,3.01-.23,3.26s.94-2.12.66-3.19Z"/>
  <path class="cls-1" d="M172.05,123.6c.18.11.41-.04.36-.25-.22-1.07-.85-3.31-2.05-2.54-1.21.78.75,2.19,1.69,2.79Z"/>
  <path class="cls-1" d="M152.26,119.53c.03-.21-.2-.36-.37-.23-.89.63-2.71,2.09-1.52,2.89s1.72-1.55,1.9-2.65Z"/>
  <path class="cls-1" d="M160.52,126.36c-.14-.11-.35,0-.33.18.09.93.42,2.92,1.52,2.36s-.44-1.95-1.19-2.54Z"/>
</svg>