<?xml version="1.0" encoding="UTF-8"?>
<svg id="step_2" data-name="step 2" xmlns="http://www.w3.org/2000/svg" viewBox="0 0 300 200">
  <defs>
    <style>
      .cls-1 {
        fill: #6f4733;
      }

      .cls-2, .cls-3 {
        fill: #2a4a2e;
      }

      .cls-4 {
        fill: #4b1900;
      }

      .cls-3 {
        stroke: #6f4733;
        stroke-linecap: round;
        stroke-miterlimit: 10;
        stroke-width: 1.11px;
      }

      .cls-5 {
        opacity: .23;
      }
    </style>
  </defs>
  <path class="cls-1" d="M263.7,107.01l-6.62,4.93-3.42,2.54H96.62c-7.56,0-14.9,2.58-20.79,7.31l-40.1,32.16h-15.79l51.61-38.41c7.43-5.53,16.45-8.52,25.72-8.52,26.99,0,53.98,0,80.97-.01,5.28,0,10.56.26,15.83-.32.83-.09,1.65-.15,2.47-.27,1.21-.17,2.41-.36,3.61-.56,1.09-.18,2.17-.38,3.26-.61,1.48-.31,2.95-.68,4.42-1.14,1.47-.47,2.95-.98,4.38-1.84.43-.26.87-.5,1.27-.97h.12c-.01.08-.02.17-.04.24-.37,1.85-.87,3.52-1.51,5.02-.04.08-.11.16-.08.3.03.14.11.08.16.07.34-.05.69-.11,1.03-.18,1.27-.27,2.52-.58,3.78-.96,2.34-.73,4.67-1.62,6.95-2.96.7-.4,1.38-.84,2.03-1.52h.08c0,.18-.04.33-.07.48-.34,1.62-.78,3.11-1.32,4.45-.1.24-.19.47-.29.71.1.12.17.08.24.08.66,0,1.32,0,1.98,0h37.16Z"/>
  <path class="cls-4" d="M253.67,114.48l-47.1,35.05c-3.85,2.87-8.52,4.41-13.32,4.41-29.29,0-58.57,0-87.86-.01-5.28,0-10.55.26-15.83-.32-.83-.09-1.65-.15-2.47-.27-1.21-.17-2.41-.36-3.61-.56-1.09-.18-2.18-.38-3.26-.61-1.48-.31-2.95-.68-4.42-1.14-1.47-.47-2.95-.98-4.38-1.84-.43-.26-1.38-.97-1.38-.97.01.08.91,3.77,1.54,5.26.04.08.11.16.08.3-.03.14-.11.08-.16.07-.34-.05-.7-.11-1.04-.18-1.26-.27-2.52-.58-3.77-.96-2.34-.73-4.67-1.62-6.95-2.96-.7-.4-2.11-1.52-2.11-1.52-.02,1.31.84,3.58,1.39,4.93.1.24.19.47.29.71-.1.12-.17.08-.24.08-.66,0-1.32,0-1.98,0h-21.36l40.4-32.4c5.7-4.57,12.79-7.07,20.1-7.07h157.43Z"/>
  <path class="cls-1" d="M175.61,136.81c.1.23-.1.39-.29.26-.36-.24-.69-.64-1.66-2.37-.37-.67-.55-1.53-.64-2.12h-1.82c-.1.35-.23.84-.23,1.05.01.39.45,2.13.9,3.18.1.23-.1.39-.29.26-.36-.24-.69-.64-1.66-2.37-.37-.67-.55-1.53-.64-2.12h-1.47c-.1.35-.23.84-.23,1.05.01.39.45,2.13.9,3.18.1.23-.1.39-.29.26-.36-.24-.7-.64-1.66-2.37-.37-.67-.55-1.53-.64-2.12h-1.47c-.11.35-.24.84-.23,1.05.01.39.45,2.13.9,3.18.1.23-.1.39-.29.26-.36-.24-.7-.64-1.66-2.37-.38-.67-.56-1.53-.64-2.12h-1.47c-.11.35-.24.84-.23,1.05.02.39.45,2.13.9,3.18.1.23-.1.39-.29.26-.36-.24-.7-.64-1.66-2.37-.38-.67-.56-1.53-.64-2.12h-1.47c-.11.35-.24.84-.23,1.05.02.39.45,2.13.9,3.18.1.23-.1.39-.29.26-.36-.24-.7-.64-1.66-2.37-.38-.67-.56-1.53-.64-2.12h-1.48c-.1.35-.23.84-.23,1.05.02.39.45,2.13.9,3.18.1.23-.1.39-.29.26-.36-.24-.7-.64-1.66-2.37-.38-.67-.56-1.53-.64-2.12h-1.47c-.1.35-.23.84-.23,1.05.02.39.45,2.13.9,3.18.1.23-.1.39-.3.26-.36-.24-.69-.64-1.65-2.37-.38-.67-.56-1.53-.64-2.12h-1.47c-.1.35-.23.84-.23,1.05.01.39.45,2.13.9,3.18.1.23-.1.39-.3.26-.36-.24-.69-.64-1.65-2.37-.38-.67-.56-1.53-.64-2.12h-1.47c-.1.35-.23.84-.23,1.05.01.39.45,2.13.9,3.18.1.23-.1.39-.3.26-.36-.24-.69-.64-1.65-2.37-.38-.67-.56-1.53-.64-2.12h-1.47c-.1.35-.23.84-.23,1.05.01.39.45,2.13.9,3.18.1.23-.1.39-.29.26-.36-.24-.69-.64-1.66-2.37-.37-.67-.55-1.53-.64-2.12h-1.47c-.1.35-.23.84-.23,1.05.01.39.45,2.13.9,3.18.1.23-.1.39-.29.26-.36-.24-.69-.64-1.66-2.37-.64-1.14-.71-2.12-.71-2.12h-.02c-.08,0-.14-.09-.11-.17l1.27-2.93s.06-.07.11-.07h17.09l.82-8.99c.06-.68.44-1.26.99-1.59l11.13-77.64s5.97-1.4,5.98-1.4c.13-.05,1.82-.49,2.66-.61.08-.01.15-.02.24-.01v.04c-.37.33-.64.71-.87,1.08-.81,1.23-1.38,2.51-1.88,3.81-.26.69-.48,1.39-.7,2.09-.05.2-.1.39-.15.58,0,.03-.04.07.02.1.07.02.11-.02.15-.04.78-.29,1.65-.49,2.6-.61.04,0,.08,0,.12,0v.07c-.27.2-.41.43-.56.67-.51.77-.84,1.59-1.16,2.4-.31.81-2.19,4.44-3.97,12.89.01-.11-6.59,37.95-9.87,56.82.53.49.81,1.25.63,2.02l-1.92,8.32h18.38c.09,0,.14.09.11.17l-1.33,2.93s-.04.05-.07.06h.04s-.36.72-.35,1.06c.01.39.45,2.13.9,3.18Z"/>
  <path class="cls-2" d="M297.49,168.79c-5.64-1.35-9.32-3.62-11.73-5.57-2.12-1.72-3.86-3.7-5.34-5.77-.6-2.72-1.47-6.85-1.6-7.41-.18-.84-.34-1.69-.32-2.62,0-.27,0-.55.13-.87l-.04-.06s-.07.05-.1.08c-.82.68-1.51,1.38-2.07,2.1-.03.04-.05.1-.12.12-.08.02-.07-.03-.08-.06-.07-.18-.14-.36-.2-.55-.21-.68-.42-1.37-.57-2.09-.3-1.32-.51-2.69-.48-4.16.01-.45.03-.9.19-1.39l-.02-.04c-.09.05-.15.11-.22.16-.71.61-1.32,1.22-1.83,1.85-.09.11-.18.22-.28.33-.02,0-.23-.13-.57-.34-1.51-2.47-3.15-4.11-5.42-4.24-1.71-.1-3.58.66-7.34,0,0,0-2.81-.49-5.5-1.78-8.03-3.84-10.45-13.36-16.51-15.45-1.85-.64-5.07-.94-11.47,3.07-.42.08-.7.12-.73.12-.04-.14-.09-.28-.12-.41-.24-.77-.57-1.56-1-2.38-.04-.08-.08-.15-.14-.23l-.04.03c-.05.52-.2.94-.36,1.36-.53,1.37-1.25,2.56-2.03,3.69-.42.61-.87,1.17-1.33,1.73-.13.15-.26.3-.4.44-.02.02-.03.07-.1.02-.06-.05-.06-.11-.07-.15-.25-.87-.62-1.76-1.12-2.7-.02-.04-.05-.07-.07-.11l-.06.04c0,.34-.12.6-.21.86-.34.87-.79,1.61-1.29,2.32-7.59,10.71-25.32,32.1-36.93,38.63,0,0,29.35,1.19,47.67-1.04,1.07-.13,2.13-.36,3.19-.58,1.44-.3,2.89-.65,4.32-1.09,1.44-.45,2.88-.93,4.29-1.75.42-.24.85-.47,1.24-.92h.12c-.02.08-.02.15-.04.23-.36,1.76-.86,3.35-1.48,4.78-.04.08-.11.15-.08.28.03.13.1.08.16.07.34-.05.68-.1,1.01-.17,1.23-.27,2.47-.55,3.7-.92,2.29-.7,4.57-1.53,6.8-2.82.68-.39,1.36-.8,1.99-1.44h.08c0,.16-.03.3-.07.45-.32,1.54-.76,2.95-1.29,4.23-.1.22-.19.45-.29.68,8.76,2.98,46.13,1.76,46.13,1.76.21,0,.24-.29.04-.34ZM281.5,163.9l.18.69c-.21-.36-.23-.54-.18-.69Z"/>
  <g class="cls-5">
    <line class="cls-3" x1="137.22" y1="138.24" x2="128.61" y2="148.94"/>
    <line class="cls-3" x1="140.68" y1="138.24" x2="132.06" y2="148.94"/>
    <line class="cls-3" x1="144.13" y1="138.24" x2="135.52" y2="148.94"/>
    <line class="cls-3" x1="147.59" y1="138.24" x2="138.98" y2="148.94"/>
    <line class="cls-3" x1="151.05" y1="138.24" x2="142.43" y2="148.94"/>
    <line class="cls-3" x1="154.5" y1="138.24" x2="145.89" y2="148.94"/>
    <line class="cls-3" x1="157.96" y1="138.24" x2="149.35" y2="148.94"/>
    <line class="cls-3" x1="161.42" y1="138.24" x2="152.8" y2="148.94"/>
    <line class="cls-3" x1="164.87" y1="138.24" x2="156.26" y2="148.94"/>
    <line class="cls-3" x1="168.33" y1="138.24" x2="159.72" y2="148.94"/>
    <line class="cls-3" x1="171.79" y1="138.24" x2="163.17" y2="148.94"/>
    <line class="cls-3" x1="175.24" y1="138.24" x2="166.63" y2="148.94"/>
  </g>
</svg>