<?xml version="1.0" encoding="UTF-8"?>
<svg id="step_5" data-name="step 5" xmlns="http://www.w3.org/2000/svg" viewBox="0 0 300 200">
  <defs>
    <style>
      .cls-1 {
        fill: #6f4733;
      }

      .cls-2 {
        fill: #2a4a2e;
      }

      .cls-3 {
        fill: #4b1900;
      }

      .cls-4 {
        fill: #509bff;
      }
    </style>
  </defs>
  <path class="cls-1" d="M282.67,109.31l-7.05,5.25-3.64,2.71H104.69c-8.05,0-15.87,2.75-22.15,7.79l-42.71,34.26h-16.82l54.98-40.92c7.92-5.89,17.53-9.08,27.4-9.08,28.75,0,57.5,0,86.25-.01,5.63,0,11.25.27,16.87-.34.88-.09,1.75-.16,2.63-.28,1.28-.18,2.57-.38,3.85-.59,1.16-.2,2.32-.41,3.47-.65,1.58-.34,3.15-.72,4.71-1.22,1.57-.5,3.14-1.04,4.67-1.96.46-.27.92-.53,1.35-1.04h.13c-.01.09-.02.18-.04.26-.39,1.97-.93,3.75-1.61,5.35-.04.09-.12.17-.09.32.03.15.11.09.17.08.37-.06.73-.11,1.1-.2,1.35-.29,2.69-.61,4.02-1.03,2.49-.78,4.97-1.72,7.4-3.16.74-.43,1.47-.9,2.16-1.62h.08c0,.19-.04.35-.07.51-.36,1.73-.83,3.31-1.41,4.74-.1.25-.2.5-.31.76.1.13.18.08.25.08.7,0,1.4,0,2.11,0h39.58Z"/>
  <path class="cls-3" d="M271.98,117.26l-50.17,37.34c-4.1,3.05-9.08,4.7-14.19,4.7-31.2,0-62.39.01-93.59-.01-5.62,0-11.24.27-16.86-.34-.88-.09-1.75-.16-2.63-.28-1.28-.18-2.57-.38-3.85-.59-1.16-.2-2.32-.41-3.47-.65-1.58-.34-3.15-.72-4.71-1.22-1.57-.5-3.14-1.04-4.67-1.96-.46-.27-1.47-1.04-1.47-1.04.01.09.97,4.01,1.65,5.61.04.09.12.17.09.32-.03.15-.11.09-.17.08-.37-.06-.74-.11-1.11-.2-1.34-.29-2.68-.61-4.02-1.03-2.49-.78-4.97-1.72-7.4-3.16-.74-.43-2.25-1.62-2.25-1.62-.02,1.39.9,3.82,1.48,5.25.1.25.2.5.31.76-.1.13-.18.08-.25.08-.7,0-1.4,0-2.11,0h-22.76l43.03-34.51c6.07-4.87,13.63-7.53,21.42-7.53h167.7Z"/>
  <path class="cls-4" d="M161.33,145.81c-14.85,6.94-27.17-4.46-29.87-11.16-.42,2.06.35,4.41.61,6.74-20.2-8.91,15.24-63.34-20.2-58.91-.05,0-3.16-16.45-3.16-16.45,15.19-4.43,24.64,2.4,27,4.84,8.45,8.71,14.14,23,9.58,40.86-4.19,16.45-1.78,28.35,16.04,34.09Z"/>
  <path class="cls-2" d="M43.5,40.77c7.48-4,12.89,11.53,12.89,11.53l21.35,10.69c.13.06.19.21.16.35l-1.11,4.32c-.11.42-.21.83-.32,1.25-.01.04-.05.08.03.16.22-.01.42-.02.63-.03,1.18-.06,2.46-.03,3.84.1.13.01.26.02.4.06v.05c-.67.26-1.13.61-1.58.96-1.47,1.15-2.56,2.43-3.53,3.75-.52.71-.97,1.43-1.4,2.17-.12.2-.21.4-.31.61-.02.03-.08.07.03.12.11.05.18.02.26.01,1.32-.09,2.76-.06,4.33.1.06,0,.13.02.2.03l-.02.07c-.45.15-.72.37-1,.59-.93.73-1.58,1.54-2.2,2.37-.61.82-1.15,1.67-1.64,2.54-.36.63-.7,1.27-1.02,1.92-.36.71-.71,1.43-1.04,2.15-.22.49-.41,1-.62,1.49-.11.27-.22.54-.32.82,5.33-2.28,31.33-13.44,31.91-14.39.65-1.06,1.45-2.14,2.13-2.97.68-.83,2.07-4.59,2.07-4.59.38-2.44,1.37-1.1,1.37-1.1l3.45,16.5c-.38,2.53-3.02-.47-3.02-.47-1.54.29-2.14-.56-2.14-.56-2.29-1.92-5.64-.09-5.64-.09l-35.85,21.53c-1.19.71-2.65.78-3.9.18l-32.33-15.58c-.41-.2-.57-.7-.36-1.1l1.85-3.4c-6.08-18.2,2.9-37,12.46-42.11ZM34.05,78.7l15.46-21.28s-1.8-12.58-5.03-11.69c-10.03,2.75-13.74,27.35-10.43,32.97Z"/>
</svg>